<svg width="582" height="582" viewBox="0 0 582 582" fill="none" xmlns="http://www.w3.org/2000/svg">
<g clip-path="url(#clip0_101_2)">
<rect width="582" height="582" fill="white"/>
<g clip-path="url(#clip1_101_2)">
<path d="M200.094 499.752C188.047 495.371 174.466 487.705 160.228 477.41C147.304 467.991 147.523 462.295 161.323 452.438C188.485 432.724 209.513 425.277 227.694 429.219C260.989 436.448 273.694 469.086 251.132 489.457C237.551 501.943 217.618 505.886 200.094 499.752ZM235.799 477.848C244.123 471.714 244.123 458.572 236.018 452.438C223.532 443.238 207.104 445.21 186.075 458.353C174.904 465.581 175.78 467.334 195.275 477.191C206.446 482.886 210.827 483.981 219.37 483.105C225.285 482.667 232.732 480.257 235.799 477.848Z" fill="#D82828"/>
<path d="M364.16 498.219C340.065 491.867 328.455 486.172 320.57 476.753C312.027 466.676 308.522 457.257 308.522 444.115C308.522 408.848 350.579 399.429 376.865 428.562C387.379 440.172 391.103 449.153 396.36 474.781C400.522 494.057 400.522 495.591 397.017 499.314C392.198 504.571 388.693 504.352 364.16 498.219ZM377.522 474.562C374.455 460.324 367.008 443.457 361.532 438.419C344.227 422.21 322.322 430.534 328.236 451.124C331.96 463.61 342.913 472.372 362.189 478.505C377.084 483.324 379.274 482.667 377.522 474.562Z" fill="#D82828"/>
<path d="M456.817 501.067C451.779 498.219 436.445 475.219 429.436 460.105C418.922 436.886 423.96 410.162 441.703 396.581C458.788 383.439 483.321 391.543 493.179 413.448C502.598 434.477 496.683 460.105 475.874 488.362C466.674 501.067 462.074 503.914 456.817 501.067ZM472.807 456.162C480.255 442.362 481.131 432.067 475.655 420.896C469.083 406.877 454.407 405.781 446.522 418.705C438.636 431.41 441.484 448.934 454.626 468.648C460.103 476.972 460.322 477.191 463.388 472.81C465.141 470.4 469.302 462.953 472.807 456.162Z" fill="#D82828"/>
<path d="M252.008 411.039C250.475 409.505 249.38 404.905 249.38 400.524C249.38 390.01 256.827 361.534 262.303 350.801C276.322 322.982 311.589 312.906 329.989 331.086C336.56 337.658 337.875 340.725 338.751 350.801C341.16 381.686 321.008 401.4 277.418 410.162C257.046 414.324 255.294 414.324 252.008 411.039ZM291.656 387.162C299.103 384.753 307.646 380.591 310.275 377.962C328.017 361.534 324.294 339.191 304.36 342.039C287.932 344.229 277.199 357.372 271.503 382.562C269.751 390.886 269.97 391.762 273.694 391.762C276.103 391.762 284.208 389.791 291.656 387.162Z" fill="#D82828"/>
<path d="M165.266 377.524C161.104 373.143 160.666 366.791 164.609 363.943C165.923 362.629 171.18 360.877 175.999 360.001C189.142 357.81 204.913 348.391 215.427 336.344C238.427 311.153 240.399 274.791 220.685 243.249C210.608 227.039 210.17 214.992 218.713 193.744C224.846 178.63 225.723 174.468 224.846 160.887C223.97 143.583 220.027 133.725 208.637 120.583C181.475 88.6018 127.152 93.6399 104.59 129.783L100.647 136.354L108.533 141.611C115.323 146.43 116.637 146.649 118.39 143.583C126.713 128.468 143.799 117.954 159.79 117.954C170.304 117.954 174.904 120.802 174.904 126.935C174.904 133.068 169.209 137.23 161.104 137.23C156.942 137.23 150.59 138.763 146.866 140.735C140.075 144.24 133.942 152.344 136.352 154.754C137.009 155.411 146.866 155.849 157.818 155.849C168.989 155.849 179.504 156.725 181.037 158.04C184.98 161.106 184.323 167.021 179.285 171.62C175.78 174.906 171.399 175.563 154.313 175.344L133.504 175.125L137.666 184.325C140.075 189.582 142.485 197.906 143.361 202.944C144.675 211.706 145.113 212.144 152.78 212.144C157.161 212.144 163.951 211.268 167.675 210.173C176.875 207.544 184.98 213.02 182.789 220.249C181.037 225.944 177.532 227.477 158.694 230.544L143.58 232.954L140.952 242.154C139.418 247.192 135.694 255.734 132.409 261.211C125.399 273.258 125.837 273.696 156.942 275.23C175.999 276.106 179.723 276.982 181.694 280.268C184.98 286.62 180.38 292.753 171.399 294.506C163.951 295.82 148.399 294.944 130.656 291.877L122.552 290.344L124.523 297.572C125.618 301.515 129.123 307.868 132.19 311.81C138.761 320.572 138.98 322.106 133.723 326.706C127.152 332.62 122.771 331.086 115.104 320.353C106.561 308.306 103.056 299.106 102.837 288.372C102.618 281.582 101.304 279.391 94.5136 274.572L86.1898 269.096L85.5327 285.087C84.8756 305.02 89.9136 320.353 102.618 335.686C112.475 347.515 112.256 346.858 109.19 352.553C103.056 363.943 85.7518 350.363 73.7042 324.734C61.2185 297.791 63.409 261.649 78.9613 237.115C88.1613 222.658 88.5994 215.868 82.028 198.563C74.7994 179.287 73.047 163.735 76.3327 147.525C83.3422 112.916 110.285 86.8494 145.99 80.278C189.58 72.1733 233.389 103.497 242.808 149.278C245.875 164.83 244.123 180.163 237.113 198.125C230.323 215.43 230.542 221.563 238.427 234.268C250.256 253.544 254.418 269.753 253.103 291.658C252.227 308.087 250.913 313.344 244.342 326.925C234.484 346.42 217.618 363.286 198.561 372.048C180.161 380.153 169.866 381.905 165.266 377.524ZM113.352 252.887C115.98 248.944 119.485 241.496 121.237 236.458L124.523 227.258L116.856 223.973C106.999 220.03 104.809 220.03 104.809 224.849C104.809 228.573 101.961 234.925 95.8279 244.563C92.9803 249.163 93.1993 249.82 99.3326 254.858C103.056 257.706 106.561 260.115 107.437 260.334C108.095 260.334 110.942 257.049 113.352 252.887ZM122.114 199.658C121.018 196.154 117.952 186.954 115.323 179.068C111.38 166.801 109.409 163.954 102.18 160.23L93.8565 155.63V165.925C93.8565 171.62 95.3898 181.039 97.3612 186.735C100.428 195.497 102.399 197.906 110.066 201.411C122.771 207.106 124.742 206.887 122.114 199.658Z" fill="#D82828"/>
<path d="M125.837 371.829C122.113 366.572 123.209 361.972 128.904 358.905C134.38 355.839 139.637 358.467 141.17 364.601C143.799 375.115 132.19 380.591 125.837 371.829Z" fill="#D82828"/>
<path d="M391.76 340.505C377.303 336.782 368.541 330.648 351.017 312.468C327.579 288.372 308.522 257.049 297.351 224.192C293.189 212.144 292.094 204.258 292.094 187.83C292.094 168.116 292.532 166.144 300.418 150.373C310.056 130.878 320.57 120.583 341.16 110.726C359.998 101.745 377.522 98.4589 405.122 98.2398C445.645 98.2398 474.779 108.535 494.493 130.221C511.359 148.621 516.179 163.297 506.54 167.021C501.283 168.992 495.15 164.611 490.55 155.411C483.76 142.049 481.788 141.392 470.179 148.621C455.064 158.04 439.293 161.982 411.474 163.297C381.246 164.611 362.408 160.887 342.036 149.716L328.455 142.268L322.541 149.716C305.675 171.84 307.208 202.725 327.141 243.906C335.246 260.992 358.465 296.477 360.217 294.725C360.655 294.506 358.027 285.963 354.303 276.106C347.074 255.515 339.189 218.935 339.189 206.011C339.189 196.154 343.132 191.773 350.579 192.868C356.274 193.744 357.589 197.468 360.874 222.001C365.036 255.515 382.56 300.639 397.236 316.41L404.903 324.515L411.693 318.163C420.017 310.496 432.941 285.087 440.826 261.43C446.522 244.782 453.093 212.582 453.093 202.287C453.093 195.497 458.35 191.554 465.36 193.306L471.274 194.839L469.96 214.992C468.645 234.925 462.293 261.211 453.312 284.43C448.712 296.258 448.712 296.477 453.093 291.001C463.607 278.296 475.655 259.239 483.76 242.373C492.96 223.754 496.245 220.03 502.16 222.22C509.388 225.068 508.512 232.954 498.874 251.792C473.245 302.829 438.636 337.877 409.284 342.039C405.122 342.696 397.236 342.039 391.76 340.505ZM427.903 141.83C434.912 140.516 446.303 137.449 452.874 135.04C463.607 130.878 464.483 130.221 460.76 127.592C453.531 122.335 424.398 117.078 402.712 117.297C381.246 117.297 366.57 119.925 352.77 125.84L344.665 129.344L353.208 133.725C371.17 142.925 402.931 146.43 427.903 141.83Z" fill="#D82828"/>
<path d="M398.331 273.477C394.389 269.534 393.95 266.249 393.95 234.925C393.95 215.649 394.827 199.001 396.141 196.592C398.769 191.992 407.093 191.116 411.036 195.058C412.788 196.811 413.665 208.639 413.665 234.049C413.665 266.687 413.227 271.068 409.722 274.134C404.465 278.953 403.588 278.734 398.331 273.477Z" fill="#D82828"/>
<path d="M499.969 200.316C496.683 191.554 504.569 182.792 511.798 187.173C519.902 192.43 516.398 203.382 506.321 203.382C503.474 203.382 500.626 202.068 499.969 200.316Z" fill="#D82828"/>
<path d="M44.348 455.92L189.879 358.843C192.598 357.029 195.711 360.504 193.622 363.019L131.939 437.252C130.563 438.908 131.456 441.434 133.565 441.85L211.807 457.286C214.327 457.783 214.934 461.119 212.751 462.479L50.3398 563.678C47.4276 565.492 44.4075 561.53 46.9199 559.191L129.528 482.259C131.222 480.681 130.419 477.845 128.151 477.398L45.3666 461.066C42.8872 460.576 42.2437 457.324 44.348 455.92Z" fill="white"/>
<mask id="path-11-outside-1_101_2" maskUnits="userSpaceOnUse" x="-5.20097" y="306.412" width="265.53" height="313.57" fill="black">
<rect fill="white" x="-5.20097" y="306.412" width="265.53" height="313.57"/>
<path fill-rule="evenodd" clip-rule="evenodd" d="M159.156 390.268L124.945 431.44C124.945 431.44 124.944 431.44 124.944 431.441C119.179 438.379 122.896 449.014 131.805 450.772L194.494 463.14L100.535 521.686L135.726 488.913L135.726 488.913C142.821 482.304 139.498 470.367 129.911 468.476L61.9984 455.078L159.156 390.268ZM53.122 565.841L53.1174 565.846L53.1169 565.846C53.1186 565.845 53.1203 565.843 53.122 565.841ZM207.943 454.76L207.942 454.761ZM184.833 351.277C196.421 343.548 209.296 358.384 200.616 368.83L200.616 368.83L145.661 434.967L213.567 448.364C224.222 450.466 226.708 464.498 217.559 470.197L55.1489 571.396L55.1483 571.396C42.6614 579.175 30.3512 562.194 40.7223 552.536C40.7225 552.536 40.7226 552.536 40.7228 552.536L114.371 483.948L43.6064 469.987C33.1255 467.92 30.486 454.237 39.3006 448.356L39.3016 448.355L184.832 351.278L184.833 351.277Z"/>
</mask>
<path fill-rule="evenodd" clip-rule="evenodd" d="M159.156 390.268L124.945 431.44C124.945 431.44 124.944 431.44 124.944 431.441C119.179 438.379 122.896 449.014 131.805 450.772L194.494 463.14L100.535 521.686L135.726 488.913L135.726 488.913C142.821 482.304 139.498 470.367 129.911 468.476L61.9984 455.078L159.156 390.268ZM53.122 565.841L53.1174 565.846L53.1169 565.846C53.1186 565.845 53.1203 565.843 53.122 565.841ZM207.943 454.76L207.942 454.761ZM184.833 351.277C196.421 343.548 209.296 358.384 200.616 368.83L200.616 368.83L145.661 434.967L213.567 448.364C224.222 450.466 226.708 464.498 217.559 470.197L55.1489 571.396L55.1483 571.396C42.6614 579.175 30.3512 562.194 40.7223 552.536C40.7225 552.536 40.7226 552.536 40.7228 552.536L114.371 483.948L43.6064 469.987C33.1255 467.92 30.486 454.237 39.3006 448.356L39.3016 448.355L184.832 351.278L184.833 351.277Z" fill="#D82828"/>
<path d="M204.286 448.791L204.286 448.791L211.598 460.73L211.599 460.729L204.286 448.791ZM159.156 390.268L169.924 399.215L151.387 378.621L159.156 390.268ZM124.945 431.44L135.636 440.479L135.674 440.433L135.713 440.387L124.945 431.44ZM124.944 431.441L114.254 422.401L114.215 422.447L114.177 422.493L124.944 431.441ZM194.494 463.14L201.898 475.022L231.995 456.268L197.204 449.405L194.494 463.14ZM100.535 521.686L90.9939 511.441L107.939 533.568L100.535 521.686ZM135.726 488.913L126.363 478.505L126.273 478.586L126.184 478.668L135.726 488.913ZM135.726 488.913L145.088 499.322L145.179 499.241L145.268 499.158L135.726 488.913ZM61.9984 455.078L54.2295 443.431L26.0188 462.249L59.2887 468.813L61.9984 455.078ZM53.1174 565.846L43.5768 555.6L43.5348 555.639L43.493 555.679L53.1174 565.846ZM53.122 565.841L62.6859 576.066L43.5814 555.596L53.122 565.841ZM53.1169 565.846L43.4925 555.679L62.6731 576.078L53.1169 565.846ZM200.616 368.83L189.848 359.883L189.473 360.334L189.138 360.815L200.616 368.83ZM184.833 351.277L192.506 362.987L192.554 362.956L192.601 362.925L184.833 351.277ZM200.616 368.83L211.384 377.778L211.758 377.327L212.094 376.846L200.616 368.83ZM145.661 434.967L134.893 426.02L119.835 444.142L142.951 448.703L145.661 434.967ZM217.559 470.197L210.157 458.314L210.156 458.315L217.559 470.197ZM55.1489 571.396L47.7451 559.514L47.7017 559.541L47.6586 559.568L55.1489 571.396ZM55.1483 571.396L62.5511 583.279L62.5949 583.251L62.6385 583.224L55.1483 571.396ZM40.7223 552.536L31.4016 542.09L31.2904 542.189L31.1813 542.291L40.7223 552.536ZM40.7228 552.536L50.0436 562.982L50.1549 562.883L50.2641 562.781L40.7228 552.536ZM114.371 483.948L123.912 494.193L143.966 475.517L117.08 470.213L114.371 483.948ZM39.3006 448.356L47.0711 460.002L47.0839 459.993L47.0968 459.984L39.3006 448.356ZM39.3016 448.355L31.5326 436.709L31.519 436.718L31.5054 436.727L39.3016 448.355ZM184.832 351.278L177.159 339.568L177.111 339.599L177.063 339.631L184.832 351.278ZM148.388 381.321L114.177 422.493L135.713 440.387L169.924 399.215L148.388 381.321ZM114.254 422.401C114.235 422.423 114.22 422.441 114.211 422.452C114.206 422.458 114.202 422.463 114.2 422.466C114.198 422.467 114.197 422.468 114.197 422.469C114.196 422.469 114.196 422.47 114.196 422.47C114.196 422.47 114.196 422.47 114.196 422.47C114.196 422.47 114.196 422.47 114.196 422.47C114.196 422.47 114.196 422.47 114.196 422.47C114.196 422.471 114.197 422.468 114.199 422.466C114.202 422.463 114.206 422.458 114.21 422.453C114.22 422.441 114.235 422.424 114.254 422.401L135.635 440.48C135.654 440.458 135.669 440.44 135.678 440.428C135.683 440.423 135.687 440.418 135.689 440.415C135.691 440.414 135.692 440.412 135.692 440.412C135.693 440.411 135.693 440.411 135.693 440.411C135.693 440.411 135.693 440.411 135.693 440.411C135.693 440.411 135.693 440.411 135.693 440.411C135.693 440.411 135.693 440.411 135.693 440.411C135.694 440.41 135.692 440.412 135.69 440.415C135.687 440.418 135.683 440.422 135.679 440.428C135.669 440.439 135.654 440.457 135.636 440.479L114.254 422.401ZM114.177 422.493C101.67 437.544 109.694 460.68 129.095 464.507L134.514 437.037C136.099 437.349 136.688 439.213 135.712 440.388L114.177 422.493ZM129.095 464.507L191.785 476.875L197.204 449.405L134.514 437.037L129.095 464.507ZM187.091 451.258L93.1314 509.804L107.939 533.568L201.898 475.022L187.091 451.258ZM110.076 531.931L145.267 499.159L126.184 478.668L90.9939 511.441L110.076 531.931ZM145.088 499.322L145.088 499.322L126.364 478.504L126.363 478.505L145.088 499.322ZM145.268 499.158C160.65 484.83 153.515 458.863 132.621 454.741L127.201 482.211C126.931 482.158 126.52 481.977 126.162 481.633C125.844 481.327 125.678 481.003 125.601 480.729C125.524 480.456 125.498 480.106 125.603 479.698C125.722 479.239 125.968 478.87 126.184 478.669L145.268 499.158ZM132.621 454.741L64.7082 441.343L59.2887 468.813L127.201 482.211L132.621 454.741ZM69.7674 466.724L166.925 401.915L151.387 378.621L54.2295 443.431L69.7674 466.724ZM62.6581 576.092L62.6626 576.087L43.5814 555.596L43.5768 555.6L62.6581 576.092ZM62.7413 576.013L62.7418 576.013L43.493 555.679L43.4925 555.679L62.7413 576.013ZM43.5581 555.617C43.5637 555.612 43.5683 555.608 43.5713 555.605C43.5727 555.604 43.5739 555.603 43.5747 555.602C43.5755 555.601 43.5761 555.601 43.5761 555.601C43.5762 555.601 43.5762 555.601 43.576 555.601C43.5759 555.601 43.5757 555.601 43.5754 555.601C43.5749 555.602 43.5739 555.603 43.5726 555.604C43.5702 555.606 43.566 555.61 43.5608 555.615L62.6731 576.078C62.6687 576.082 62.6654 576.085 62.6638 576.086C62.663 576.087 62.6624 576.088 62.6622 576.088C62.6622 576.088 62.6621 576.088 62.6623 576.088C62.6623 576.088 62.6626 576.087 62.6628 576.087C62.6636 576.086 62.6666 576.084 62.6702 576.08C62.674 576.077 62.6794 576.072 62.6859 576.066L43.5581 555.617ZM200.63 442.821L200.63 442.822L215.254 466.699L215.255 466.699L200.63 442.821ZM211.384 377.777C220.834 366.404 218.208 352.322 210.81 343.961C203.299 335.472 189.528 331.318 177.065 339.63L192.601 362.925C192.673 362.876 192.526 362.987 192.165 363.065C191.807 363.143 191.407 363.152 191.022 363.085C190.291 362.959 189.947 362.637 189.84 362.515C189.735 362.397 189.506 362.08 189.467 361.448C189.447 361.108 189.49 360.741 189.602 360.397C189.717 360.046 189.853 359.877 189.848 359.883L211.384 377.777ZM212.094 376.846L212.094 376.846L189.138 360.815L189.138 360.815L212.094 376.846ZM156.428 443.915L211.384 377.778L189.848 359.883L134.893 426.02L156.428 443.915ZM216.277 434.629L148.37 421.232L142.951 448.703L210.857 462.1L216.277 434.629ZM224.962 482.08C244.784 469.731 239.513 439.213 216.277 434.629L210.857 462.1C210.615 462.052 210.144 461.849 209.743 461.419C209.399 461.052 209.261 460.688 209.212 460.421C209.164 460.155 209.169 459.781 209.352 459.337C209.566 458.817 209.925 458.459 210.157 458.314L224.962 482.08ZM62.5526 583.278L224.963 482.079L210.156 458.315L47.7451 559.514L62.5526 583.278ZM62.6385 583.224L62.6391 583.223L47.6586 559.568L47.658 559.568L62.6385 583.224ZM31.1813 542.291C19.8521 552.841 21.3216 567.733 28.1418 576.876C35.1282 586.242 49.1749 591.612 62.5511 583.279L47.7454 559.513C47.6122 559.596 47.7449 559.487 48.1329 559.42C48.5214 559.353 48.9624 559.364 49.3855 559.464C50.1895 559.654 50.5145 560.039 50.5853 560.134C50.6527 560.224 50.8599 560.538 50.8347 561.192C50.8209 561.548 50.7349 561.933 50.5721 562.287C50.4064 562.648 50.2413 562.802 50.2633 562.782L31.1813 542.291ZM31.4021 542.089C31.3777 542.111 31.3563 542.13 31.3387 542.146C31.3212 542.162 31.3063 542.176 31.295 542.186C31.2838 542.196 31.2747 542.204 31.2693 542.209C31.2665 542.212 31.2643 542.214 31.2629 542.215C31.2623 542.216 31.2617 542.216 31.2614 542.217C31.2612 542.217 31.261 542.217 31.2609 542.217C31.2609 542.217 31.2609 542.217 31.2608 542.217C31.2608 542.217 31.2608 542.217 31.2608 542.217C31.2608 542.217 31.2608 542.217 31.2608 542.217C31.2608 542.217 31.2608 542.217 31.2608 542.217C31.2606 542.217 31.2617 542.216 31.2629 542.215C31.2642 542.214 31.2664 542.212 31.2692 542.21C31.2746 542.205 31.2836 542.196 31.2948 542.186C31.306 542.176 31.3209 542.162 31.3384 542.147C31.3559 542.131 31.3772 542.112 31.4016 542.09L50.0431 562.982C50.0675 562.961 50.0888 562.941 50.1064 562.925C50.1239 562.91 50.1388 562.896 50.1501 562.886C50.1613 562.876 50.1704 562.867 50.1758 562.862C50.1786 562.86 50.1808 562.858 50.1822 562.857C50.1829 562.856 50.1834 562.855 50.1838 562.855C50.1839 562.855 50.1841 562.855 50.1842 562.855C50.1842 562.855 50.1842 562.855 50.1843 562.855C50.1843 562.855 50.1843 562.855 50.1843 562.855C50.1843 562.855 50.1843 562.855 50.1843 562.855C50.1843 562.855 50.1843 562.855 50.1843 562.855C50.1845 562.854 50.1834 562.855 50.1822 562.856C50.1809 562.858 50.1787 562.86 50.1759 562.862C50.1706 562.867 50.1615 562.875 50.1504 562.886C50.1391 562.896 50.1242 562.909 50.1067 562.925C50.0892 562.941 50.0679 562.96 50.0436 562.982L31.4021 542.089ZM104.829 473.703L31.1815 542.29L50.2641 562.781L123.912 494.193L104.829 473.703ZM40.8966 483.723L111.661 497.683L117.08 470.213L46.3162 456.252L40.8966 483.723ZM31.5301 436.71C12.4344 449.452 18.039 479.213 40.8966 483.723L46.3162 456.252C46.5631 456.301 47.0234 456.5 47.4179 456.915C47.7577 457.272 47.9015 457.63 47.9545 457.9C48.0073 458.169 48.0078 458.538 47.8386 458.976C47.6417 459.485 47.3027 459.847 47.0711 460.002L31.5301 436.71ZM31.5054 436.727L31.5044 436.728L47.0968 459.984L47.0978 459.984L31.5054 436.727ZM177.063 339.631L31.5326 436.709L47.0705 460.002L192.601 362.924L177.063 339.631ZM177.159 339.568L177.159 339.568L192.506 362.988L192.506 362.987L177.159 339.568Z" fill="white" mask="url(#path-11-outside-1_101_2)"/>
<path d="M213.654 179.192L265.222 12.0271C266.186 8.90424 270.794 9.6327 270.761 12.9022L269.794 109.414C269.772 111.567 272.06 112.961 273.958 111.953L344.38 74.5253C346.648 73.3196 349.224 75.5232 348.39 77.9558L286.333 258.974C285.22 262.219 280.377 261.054 280.848 257.654L296.339 145.838C296.657 143.545 294.243 141.853 292.202 142.938L217.692 182.538C215.461 183.724 212.908 181.609 213.654 179.192Z" fill="white"/>
<mask id="path-14-outside-2_101_2" maskUnits="userSpaceOnUse" x="125.119" y="-37.9854" width="315.325" height="340.562" fill="black">
<rect fill="white" x="125.119" y="-37.9854" width="315.325" height="340.562"/>
<path fill-rule="evenodd" clip-rule="evenodd" d="M261.237 55.7942L260.701 109.322C260.701 109.322 260.701 109.323 260.701 109.323C260.61 118.343 270.208 124.244 278.226 119.983L334.65 89.9949L298.748 194.719L305.347 147.086L305.347 147.085C306.677 137.481 296.563 130.322 287.935 134.908L226.81 167.394L261.237 55.7942ZM289.857 258.895L289.856 258.902L289.856 258.902C289.856 258.9 289.857 258.898 289.857 258.895ZM339.788 75.0059L339.788 75.0068ZM256.533 9.34586C260.64 -3.96475 279.99 -0.58768 279.854 12.9932L279.854 12.9933L278.993 98.9786L340.112 66.4952C349.702 61.3983 360.489 70.7097 356.992 80.9057L294.935 261.923L294.935 261.924C290.163 275.84 269.895 270.443 271.841 256.406C271.841 256.405 271.841 256.405 271.841 256.405L285.652 156.718L221.96 190.569C212.527 195.582 201.841 186.638 204.964 176.512L204.964 176.511L256.532 9.34645L256.533 9.34586Z"/>
</mask>
<path fill-rule="evenodd" clip-rule="evenodd" d="M261.237 55.7942L260.701 109.322C260.701 109.322 260.701 109.323 260.701 109.323C260.61 118.343 270.208 124.244 278.226 119.983L334.65 89.9949L298.748 194.719L305.347 147.086L305.347 147.085C306.677 137.481 296.563 130.322 287.935 134.908L226.81 167.394L261.237 55.7942ZM289.857 258.895L289.856 258.902L289.856 258.902C289.856 258.9 289.857 258.898 289.857 258.895ZM339.788 75.0059L339.788 75.0068ZM256.533 9.34586C260.64 -3.96475 279.99 -0.58768 279.854 12.9932L279.854 12.9933L278.993 98.9786L340.112 66.4952C349.702 61.3983 360.489 70.7097 356.992 80.9057L294.935 261.923L294.935 261.924C290.163 275.84 269.895 270.443 271.841 256.406C271.841 256.405 271.841 256.405 271.841 256.405L285.652 156.718L221.96 190.569C212.527 195.582 201.841 186.638 204.964 176.512L204.964 176.511L256.532 9.34645L256.533 9.34586Z" fill="#D82828"/>
<path d="M334.128 73.0165L334.127 73.0174L345.449 76.9962L345.449 76.9953L334.128 73.0165ZM261.237 55.7942L273.237 55.9144L249.77 52.2568L261.237 55.7942ZM260.701 109.322L272.699 109.545L272.7 109.494L272.7 109.442L260.701 109.322ZM260.701 109.323L248.703 109.1L248.702 109.151L248.701 109.202L260.701 109.323ZM334.65 89.9949L346.001 93.8864L355.858 65.1334L329.018 79.3985L334.65 89.9949ZM298.748 194.719L286.862 193.072L310.1 198.61L298.748 194.719ZM305.347 147.086L293.491 145.234L293.475 145.336L293.461 145.439L305.347 147.086ZM305.347 147.085L317.203 148.938L317.22 148.835L317.234 148.731L305.347 147.085ZM226.81 167.394L215.343 163.857L206.775 191.632L232.441 177.991L226.81 167.394ZM289.856 258.902L277.97 257.254L277.963 257.303L277.957 257.352L289.856 258.902ZM289.857 258.895L301.747 260.516L277.971 257.248L289.857 258.895ZM289.856 258.902L277.957 257.352L301.745 260.532L289.856 258.902ZM279.854 12.9932L267.855 12.8731L267.85 13.3756L267.887 13.8767L279.854 12.9932ZM256.533 9.34586L267.97 12.977L267.985 12.9306L267.999 12.884L256.533 9.34586ZM279.854 12.9933L291.854 13.1136L291.859 12.611L291.822 12.1097L279.854 12.9933ZM278.993 98.9786L266.993 98.8584L266.791 119.053L284.624 109.575L278.993 98.9786ZM356.992 80.9057L345.641 77.0131L345.641 77.0142L356.992 80.9057ZM294.935 261.923L283.584 258.031L283.57 258.073L283.556 258.114L294.935 261.923ZM294.935 261.924L306.286 265.816L306.301 265.774L306.315 265.732L294.935 261.924ZM271.841 256.406L259.992 254.506L259.972 254.632L259.954 254.759L271.841 256.406ZM271.841 256.405L283.689 258.305L283.71 258.178L283.727 258.052L271.841 256.405ZM285.652 156.718L297.538 158.365L300.761 135.098L280.02 146.122L285.652 156.718ZM204.964 176.512L216.431 180.048L216.435 180.035L216.439 180.023L204.964 176.512ZM204.964 176.511L193.497 172.973L193.493 172.987L193.489 173L204.964 176.511ZM256.532 9.34645L245.095 5.71532L245.08 5.76214L245.066 5.80908L256.532 9.34645ZM249.238 55.6739L248.701 109.202L272.7 109.442L273.237 55.9144L249.238 55.6739ZM248.703 109.099C248.702 109.124 248.702 109.144 248.702 109.157C248.702 109.163 248.702 109.168 248.702 109.172C248.702 109.173 248.702 109.175 248.702 109.175C248.702 109.176 248.702 109.176 248.702 109.176C248.702 109.176 248.702 109.176 248.702 109.177C248.702 109.177 248.702 109.177 248.702 109.177C248.702 109.177 248.702 109.177 248.702 109.177C248.702 109.177 248.702 109.175 248.702 109.172C248.702 109.169 248.702 109.164 248.702 109.157C248.702 109.145 248.702 109.125 248.703 109.1L272.699 109.546C272.699 109.521 272.699 109.501 272.7 109.488C272.7 109.482 272.7 109.477 272.7 109.473C272.7 109.472 272.7 109.47 272.7 109.47C272.7 109.469 272.7 109.469 272.7 109.469C272.7 109.469 272.7 109.469 272.7 109.468C272.7 109.468 272.7 109.468 272.7 109.468C272.7 109.468 272.7 109.468 272.7 109.468C272.7 109.468 272.7 109.47 272.7 109.473C272.7 109.476 272.7 109.481 272.7 109.488C272.699 109.5 272.699 109.52 272.699 109.545L248.703 109.099ZM248.701 109.202C248.52 127.264 267.744 139.143 283.857 130.579L272.594 109.387C272.566 109.401 272.551 109.407 272.548 109.408C272.546 109.409 272.551 109.407 272.563 109.404C272.59 109.398 272.623 109.395 272.654 109.397C272.682 109.398 272.697 109.402 272.698 109.403C272.698 109.403 272.689 109.4 272.676 109.392C272.663 109.384 272.654 109.376 272.651 109.373C272.649 109.371 272.657 109.378 272.668 109.398C272.68 109.419 272.692 109.446 272.698 109.471C272.701 109.482 272.702 109.488 272.702 109.486C272.701 109.485 272.7 109.471 272.7 109.443L248.701 109.202ZM283.857 130.579L340.281 100.591L329.018 79.3985L272.594 109.387L283.857 130.579ZM323.298 86.1033L287.397 190.827L310.1 198.61L346.001 93.8864L323.298 86.1033ZM310.635 196.365L317.234 148.733L293.461 145.439L286.862 193.072L310.635 196.365ZM317.203 148.938L317.203 148.938L293.491 145.233L293.491 145.234L317.203 148.938ZM317.234 148.731C319.895 129.512 299.655 115.089 282.303 124.312L293.566 145.504C293.605 145.484 293.626 145.476 293.63 145.474C293.635 145.473 293.629 145.475 293.614 145.478C293.599 145.481 293.579 145.484 293.558 145.485C293.536 145.487 293.516 145.486 293.498 145.485C293.462 145.482 293.444 145.475 293.444 145.475C293.446 145.476 293.459 145.481 293.478 145.495C293.496 145.508 293.508 145.52 293.513 145.526C293.517 145.53 293.509 145.522 293.497 145.496C293.484 145.467 293.473 145.431 293.468 145.399C293.466 145.384 293.466 145.377 293.466 145.38C293.466 145.383 293.466 145.402 293.461 145.439L317.234 148.731ZM282.303 124.312L221.178 156.798L232.441 177.991L293.566 145.504L282.303 124.312ZM238.276 170.932L272.704 59.3315L249.77 52.2568L215.343 163.857L238.276 170.932ZM301.742 260.549L301.743 260.543L277.971 257.248L277.97 257.254L301.742 260.549ZM301.755 260.452L301.756 260.451L277.957 257.352L277.957 257.352L301.755 260.452ZM277.967 257.275C277.968 257.268 277.968 257.263 277.969 257.26C277.969 257.258 277.969 257.257 277.969 257.256C277.97 257.255 277.97 257.254 277.97 257.254C277.97 257.253 277.969 257.256 277.969 257.259C277.969 257.262 277.968 257.267 277.967 257.273L301.745 260.532C301.744 260.537 301.744 260.541 301.743 260.542C301.743 260.543 301.743 260.545 301.743 260.543C301.743 260.542 301.744 260.539 301.745 260.534C301.745 260.53 301.746 260.523 301.747 260.516L277.967 257.275ZM328.467 71.0272L328.467 71.028L351.109 78.9855L351.109 78.9847L328.467 71.0272ZM291.854 13.1133C291.99 -0.531293 281.938 -9.07568 271.734 -10.7554C261.385 -12.4589 249.146 -7.41313 245.066 5.80772L267.999 12.884C268.049 12.7224 268.092 12.6335 268.109 12.6004C268.126 12.5678 268.125 12.5759 268.098 12.61C268.071 12.6439 268.03 12.6887 267.974 12.7357C267.919 12.7822 267.862 12.8211 267.808 12.8515C267.699 12.9128 267.637 12.9208 267.65 12.9186C267.657 12.9175 267.678 12.9148 267.712 12.915C267.747 12.9151 267.789 12.9182 267.836 12.9259C267.882 12.9336 267.927 12.9448 267.968 12.9583C268.008 12.9718 268.039 12.9855 268.058 12.9958C268.099 13.0172 268.076 13.0134 268.019 12.952C267.99 12.921 267.958 12.8801 267.927 12.8302C267.895 12.7796 267.872 12.7307 267.856 12.6899C267.84 12.6488 267.839 12.6324 267.842 12.6507C267.846 12.6694 267.856 12.7402 267.855 12.8731L291.854 13.1133ZM291.822 12.1097L291.822 12.1096L267.887 13.8767L267.887 13.8769L291.822 12.1097ZM290.992 99.0989L291.854 13.1136L267.855 12.873L266.993 98.8584L290.992 99.0989ZM334.48 55.8988L273.361 88.3822L284.624 109.575L345.744 77.0916L334.48 55.8988ZM368.343 84.7984C375.336 64.4063 353.777 45.6431 334.48 55.8988L345.744 77.0916C345.802 77.0608 345.835 77.0486 345.844 77.0456C345.852 77.0426 345.845 77.0457 345.824 77.0495C345.803 77.0532 345.775 77.0562 345.744 77.0568C345.714 77.0573 345.685 77.0554 345.66 77.0519C345.609 77.045 345.587 77.0341 345.591 77.0361C345.597 77.039 345.62 77.0509 345.649 77.0755C345.677 77.1002 345.695 77.123 345.703 77.1342C345.709 77.1438 345.698 77.1306 345.686 77.0901C345.68 77.0698 345.675 77.0453 345.671 77.018C345.667 76.9903 345.666 76.9649 345.666 76.9442C345.666 76.9231 345.668 76.9145 345.667 76.9209C345.666 76.9272 345.66 76.9575 345.641 77.0131L368.343 84.7984ZM306.287 265.815L368.344 84.7973L345.641 77.0142L283.584 258.031L306.287 265.815ZM306.315 265.732L306.315 265.732L283.556 258.114L283.556 258.115L306.315 265.732ZM259.954 254.759C257.994 268.905 267.684 278.703 277.94 281.284C288.426 283.924 301.564 279.588 306.286 265.816L283.584 258.031C283.517 258.227 283.461 258.336 283.436 258.379C283.411 258.422 283.41 258.416 283.442 258.379C283.474 258.341 283.526 258.291 283.595 258.238C283.664 258.185 283.736 258.142 283.805 258.108C283.945 258.041 284.025 258.036 284.013 258.037C284.007 258.037 283.983 258.039 283.943 258.035C283.903 258.032 283.854 258.024 283.798 258.01C283.743 257.996 283.689 257.978 283.64 257.957C283.591 257.936 283.554 257.915 283.528 257.898C283.475 257.864 283.496 257.864 283.549 257.935C283.576 257.972 283.607 258.02 283.636 258.08C283.665 258.14 283.686 258.199 283.699 258.248C283.712 258.298 283.711 258.318 283.71 258.299C283.709 258.279 283.707 258.2 283.727 258.053L259.954 254.759ZM259.992 254.505C259.988 254.533 259.984 254.557 259.981 254.577C259.978 254.597 259.975 254.614 259.973 254.627C259.971 254.64 259.97 254.651 259.969 254.657C259.968 254.66 259.968 254.663 259.968 254.664C259.968 254.665 259.967 254.666 259.967 254.666C259.967 254.666 259.967 254.666 259.967 254.667C259.967 254.667 259.967 254.667 259.967 254.667C259.967 254.667 259.967 254.667 259.967 254.667C259.967 254.667 259.967 254.667 259.967 254.667C259.967 254.667 259.967 254.666 259.968 254.664C259.968 254.663 259.968 254.66 259.969 254.657C259.97 254.651 259.971 254.641 259.973 254.628C259.975 254.615 259.978 254.598 259.981 254.578C259.984 254.558 259.988 254.534 259.992 254.506L283.689 258.305C283.694 258.278 283.698 258.253 283.701 258.233C283.704 258.213 283.706 258.196 283.708 258.183C283.71 258.17 283.712 258.16 283.713 258.154C283.713 258.151 283.714 258.148 283.714 258.146C283.714 258.146 283.714 258.145 283.714 258.145C283.714 258.144 283.714 258.144 283.714 258.144C283.714 258.144 283.714 258.144 283.714 258.144C283.714 258.144 283.714 258.144 283.714 258.144C283.714 258.144 283.714 258.144 283.714 258.144C283.714 258.144 283.714 258.145 283.714 258.146C283.714 258.148 283.713 258.15 283.713 258.154C283.712 258.16 283.71 258.17 283.708 258.183C283.706 258.196 283.704 258.213 283.701 258.233C283.698 258.253 283.694 258.277 283.689 258.305L259.992 254.505ZM273.765 155.071L259.954 254.758L283.727 258.052L297.538 158.365L273.765 155.071ZM227.592 201.165L291.283 167.314L280.02 146.122L216.328 179.972L227.592 201.165ZM193.497 172.976C187.253 193.226 208.61 211.253 227.592 201.165L216.328 179.972C216.274 180.001 216.242 180.013 216.234 180.016C216.226 180.018 216.233 180.015 216.253 180.012C216.273 180.008 216.299 180.005 216.328 180.004C216.357 180.004 216.385 180.005 216.409 180.008C216.457 180.015 216.479 180.025 216.475 180.023C216.47 180.021 216.449 180.01 216.422 179.988C216.396 179.966 216.379 179.945 216.371 179.934C216.365 179.926 216.376 179.938 216.388 179.975C216.394 179.994 216.4 180.017 216.404 180.042C216.408 180.068 216.41 180.092 216.41 180.112C216.41 180.131 216.409 180.14 216.41 180.134C216.41 180.128 216.415 180.1 216.431 180.048L193.497 172.976ZM193.489 173L193.489 173.001L216.439 180.023L216.439 180.021L193.489 173ZM245.066 5.80908L193.497 172.973L216.431 180.048L267.999 12.8838L245.066 5.80908ZM245.095 5.71473L245.095 5.71532L267.97 12.9776L267.97 12.977L245.095 5.71473Z" fill="white" mask="url(#path-14-outside-2_101_2)"/>
<path d="M459.273 534.382L380.965 377.95C379.502 375.028 383.335 372.368 385.572 374.753L451.596 445.154C453.068 446.725 455.686 446.151 456.359 444.11L481.366 368.382C482.171 365.942 485.556 365.753 486.635 368.088L566.943 541.781C568.383 544.895 564.078 547.401 562.067 544.619L495.957 453.119C494.601 451.243 491.688 451.689 490.963 453.884L464.505 534.009C463.713 536.409 460.406 536.644 459.273 534.382Z" fill="white"/>
<mask id="path-17-outside-3_101_2" maskUnits="userSpaceOnUse" x="299.715" y="304.322" width="331.331" height="292.91" fill="black">
<rect fill="white" x="299.715" y="304.322" width="331.331" height="292.91"/>
<path fill-rule="evenodd" clip-rule="evenodd" d="M397.123 410.064L433.551 449.288C433.551 449.288 433.551 449.288 433.551 449.289C439.69 455.899 450.716 453.581 453.605 444.973L473.935 384.395L519.906 485.106L491.934 445.992L491.933 445.991C486.292 438.104 474.027 439.864 470.918 449.128L448.893 514.753L397.123 410.064ZM557.594 537.806L557.598 537.812L557.598 537.812C557.597 537.81 557.595 537.808 557.594 537.806ZM467.356 369.981L467.356 369.981ZM361.76 379.584C355.586 367.097 371.955 356.239 381.197 366.19L381.197 366.19L439.714 429.198L461.737 363.58C465.192 353.284 479.427 352.624 483.902 362.43L563.363 536.511L563.363 536.512C569.471 549.896 551.047 559.919 542.804 548.391C542.804 548.391 542.804 548.391 542.804 548.391L484.262 466.53L461.312 534.91C457.913 545.038 444.005 545.895 439.307 536.397L439.306 536.396L361.76 379.585L361.76 379.584Z"/>
</mask>
<path fill-rule="evenodd" clip-rule="evenodd" d="M397.123 410.064L433.551 449.288C433.551 449.288 433.551 449.288 433.551 449.289C439.69 455.899 450.716 453.581 453.605 444.973L473.935 384.395L519.906 485.106L491.934 445.992L491.933 445.991C486.292 438.104 474.027 439.864 470.918 449.128L448.893 514.753L397.123 410.064ZM557.594 537.806L557.598 537.812L557.598 537.812C557.597 537.81 557.595 537.808 557.594 537.806ZM467.356 369.981L467.356 369.981ZM361.76 379.584C355.586 367.097 371.955 356.239 381.197 366.19L381.197 366.19L439.714 429.198L461.737 363.58C465.192 353.284 479.427 352.624 483.902 362.43L563.363 536.511L563.363 536.512C569.471 549.896 551.047 559.919 542.804 548.391C542.804 548.391 542.804 548.391 542.804 548.391L484.262 466.53L461.312 534.91C457.913 545.038 444.005 545.895 439.307 536.397L439.306 536.396L361.76 379.585L361.76 379.584Z" fill="#D82828"/>
<path d="M460.966 372.838L460.966 372.839L473.746 367.124L473.746 367.123L460.966 372.838ZM397.123 410.064L407.381 400.537L384.573 416.27L397.123 410.064ZM433.551 449.288L443.89 439.849L443.85 439.805L443.809 439.761L433.551 449.288ZM433.551 449.289L423.212 458.728L423.252 458.772L423.293 458.816L433.551 449.289ZM473.935 384.395L486.671 378.582L471.946 346.322L460.663 379.941L473.935 384.395ZM519.906 485.106L508.518 493.25L532.642 479.293L519.906 485.106ZM491.934 445.992L480.407 453.937L480.475 454.037L480.546 454.135L491.934 445.992ZM491.933 445.991L503.46 438.046L503.391 437.946L503.32 437.847L491.933 445.991ZM448.893 514.753L436.344 520.958L451.376 551.356L462.166 519.207L448.893 514.753ZM557.598 537.812L546.21 545.955L546.243 546.001L546.277 546.048L557.598 537.812ZM557.594 537.806L568.964 529.638L546.206 545.95L557.594 537.806ZM557.598 537.812L546.277 546.048L568.974 529.652L557.598 537.812ZM381.197 366.19L370.939 375.718L371.338 376.147L371.772 376.542L381.197 366.19ZM361.76 379.584L374.36 373.481L374.335 373.43L374.31 373.379L361.76 379.584ZM381.197 366.19L391.456 356.663L391.057 356.234L390.623 355.839L381.197 366.19ZM439.714 429.198L429.456 438.725L445.49 455.99L452.987 433.653L439.714 429.198ZM483.902 362.43L471.165 368.242L471.166 368.243L483.902 362.43ZM563.363 536.511L550.627 542.325L550.648 542.371L550.67 542.417L563.363 536.511ZM563.363 536.512L576.1 530.699L576.078 530.652L576.056 530.605L563.363 536.512ZM542.804 548.391L531.245 556.29L531.329 556.413L531.416 556.535L542.804 548.391ZM542.804 548.391L554.362 540.491L554.278 540.368L554.191 540.247L542.804 548.391ZM484.262 466.53L495.65 458.386L479.709 436.096L470.989 462.076L484.262 466.53ZM439.307 536.397L451.855 530.189L451.849 530.176L451.842 530.162L439.307 536.397ZM439.306 536.396L426.757 542.602L426.764 542.616L426.771 542.631L439.306 536.396ZM361.76 379.585L349.16 385.687L349.185 385.739L349.211 385.79L361.76 379.585ZM386.864 419.591L423.292 458.815L443.809 439.761L407.381 400.537L386.864 419.591ZM423.211 458.727C423.231 458.748 423.247 458.766 423.257 458.777C423.262 458.782 423.266 458.787 423.268 458.789C423.27 458.791 423.271 458.792 423.271 458.793C423.272 458.793 423.272 458.793 423.272 458.793C423.272 458.793 423.272 458.793 423.272 458.794C423.272 458.794 423.272 458.794 423.272 458.794C423.272 458.794 423.272 458.794 423.272 458.794C423.273 458.794 423.271 458.792 423.269 458.789C423.266 458.787 423.262 458.782 423.257 458.777C423.247 458.766 423.231 458.749 423.212 458.728L443.891 439.85C443.871 439.828 443.855 439.811 443.845 439.8C443.84 439.795 443.836 439.79 443.834 439.787C443.832 439.786 443.831 439.785 443.831 439.784C443.83 439.784 443.83 439.784 443.83 439.783C443.83 439.783 443.83 439.783 443.83 439.783C443.83 439.783 443.83 439.783 443.83 439.783C443.83 439.783 443.83 439.783 443.83 439.783C443.829 439.783 443.831 439.785 443.834 439.787C443.836 439.79 443.84 439.794 443.845 439.8C443.855 439.811 443.871 439.828 443.89 439.849L423.211 458.727ZM423.293 458.816C436.609 473.155 460.585 468.175 466.877 449.427L440.332 440.518C440.846 438.987 442.77 438.642 443.81 439.762L423.293 458.816ZM466.877 449.427L487.208 388.85L460.663 379.941L440.332 440.518L466.877 449.427ZM461.2 390.209L507.17 490.92L532.642 479.293L486.671 378.582L461.2 390.209ZM531.294 476.962L503.321 437.848L480.546 454.135L508.518 493.25L531.294 476.962ZM503.461 438.046L503.46 438.046L480.406 453.936L480.407 453.937L503.461 438.046ZM503.32 437.847C491.091 420.749 464.421 424.484 457.645 444.674L484.19 453.583C484.103 453.844 483.87 454.229 483.483 454.539C483.139 454.815 482.796 454.938 482.514 454.979C482.234 455.02 481.883 455.001 481.493 454.844C481.053 454.668 480.718 454.376 480.546 454.136L503.32 437.847ZM457.645 444.674L435.621 510.298L462.166 519.207L484.19 453.583L457.645 444.674ZM461.443 508.547L409.672 403.858L384.573 416.27L436.344 520.958L461.443 508.547ZM568.986 529.668L568.982 529.663L546.206 545.95L546.21 545.955L568.986 529.668ZM568.919 529.576L568.919 529.575L546.277 546.048L546.277 546.048L568.919 529.576ZM546.225 545.975C546.22 545.969 546.216 545.964 546.214 545.961C546.213 545.959 546.212 545.958 546.211 545.957C546.211 545.956 546.21 545.955 546.21 545.955C546.21 545.955 546.21 545.955 546.21 545.955C546.21 545.956 546.21 545.956 546.211 545.956C546.211 545.957 546.212 545.958 546.213 545.959C546.215 545.962 546.218 545.967 546.222 545.972L568.974 529.652C568.977 529.657 568.98 529.66 568.981 529.662C568.982 529.663 568.983 529.664 568.983 529.664C568.983 529.664 568.983 529.664 568.983 529.664C568.983 529.664 568.982 529.663 568.982 529.663C568.981 529.662 568.979 529.659 568.976 529.655C568.973 529.651 568.969 529.645 568.964 529.638L546.225 545.975ZM454.575 375.696L454.576 375.697L480.136 364.266L480.136 364.265L454.575 375.696ZM391.456 356.663C381.392 345.828 367.09 346.62 357.846 352.881C348.462 359.237 342.57 372.36 349.21 385.789L374.31 373.379C374.271 373.301 374.362 373.461 374.393 373.829C374.424 374.195 374.381 374.593 374.266 374.965C374.046 375.674 373.683 375.973 373.548 376.064C373.418 376.153 373.074 376.339 372.442 376.296C372.103 376.273 371.744 376.183 371.417 376.027C371.084 375.868 370.934 375.712 370.939 375.718L391.456 356.663ZM390.623 355.839L390.623 355.839L371.772 376.542L371.772 376.542L390.623 355.839ZM449.973 419.671L391.456 356.663L370.939 375.717L429.456 438.725L449.973 419.671ZM448.464 359.126L426.442 424.744L452.987 433.653L475.009 368.035L448.464 359.126ZM496.638 356.618C486.943 335.371 456 336.672 448.464 359.126L475.009 368.035C474.931 368.269 474.669 368.709 474.191 369.052C473.782 369.346 473.404 369.436 473.133 369.45C472.863 369.463 472.493 369.411 472.076 369.172C471.588 368.892 471.279 368.49 471.165 368.242L496.638 356.618ZM576.099 530.698L496.638 356.617L471.166 368.243L550.627 542.325L576.099 530.698ZM576.056 530.605L576.056 530.605L550.67 542.417L550.67 542.418L576.056 530.605ZM531.416 556.535C540.421 569.127 555.379 569.586 565.323 563.999C575.509 558.275 582.643 545.037 576.1 530.699L550.627 542.324C550.692 542.467 550.601 542.321 550.584 541.928C550.567 541.534 550.635 541.098 550.789 540.691C551.081 539.919 551.505 539.646 551.608 539.588C551.706 539.533 552.044 539.367 552.689 539.477C553.04 539.536 553.411 539.671 553.741 539.878C554.077 540.089 554.209 540.272 554.192 540.248L531.416 556.535ZM531.245 556.29C531.263 556.317 531.28 556.341 531.293 556.36C531.307 556.379 531.318 556.396 531.327 556.408C531.336 556.421 531.343 556.431 531.347 556.437C531.349 556.44 531.351 556.442 531.352 556.444C531.352 556.445 531.353 556.445 531.353 556.446C531.353 556.446 531.353 556.446 531.353 556.446C531.353 556.446 531.353 556.446 531.353 556.446C531.353 556.446 531.353 556.446 531.353 556.446C531.353 556.446 531.353 556.446 531.353 556.446C531.353 556.446 531.353 556.446 531.353 556.446C531.354 556.447 531.353 556.445 531.352 556.444C531.351 556.443 531.349 556.44 531.347 556.437C531.343 556.431 531.336 556.421 531.327 556.409C531.318 556.396 531.307 556.38 531.293 556.36C531.28 556.341 531.264 556.317 531.245 556.29L554.363 540.492C554.344 540.465 554.328 540.441 554.314 540.422C554.301 540.402 554.289 540.386 554.281 540.373C554.272 540.361 554.265 540.351 554.261 540.345C554.259 540.342 554.257 540.339 554.256 540.338C554.255 540.337 554.255 540.336 554.254 540.336C554.254 540.336 554.254 540.336 554.254 540.336C554.254 540.336 554.254 540.336 554.254 540.335C554.254 540.335 554.254 540.335 554.254 540.335C554.254 540.335 554.254 540.335 554.254 540.335C554.254 540.335 554.254 540.335 554.254 540.335C554.254 540.335 554.255 540.336 554.256 540.338C554.257 540.339 554.258 540.342 554.261 540.345C554.265 540.351 554.272 540.361 554.28 540.373C554.289 540.386 554.301 540.402 554.314 540.421C554.328 540.441 554.344 540.464 554.362 540.491L531.245 556.29ZM472.874 474.674L531.416 556.534L554.191 540.247L495.65 458.386L472.874 474.674ZM474.585 539.365L497.534 470.985L470.989 462.076L448.04 530.456L474.585 539.365ZM426.758 542.604C436.937 563.181 467.172 561.452 474.585 539.365L448.04 530.456C448.12 530.217 448.377 529.786 448.839 529.448C449.237 529.157 449.611 529.061 449.885 529.043C450.158 529.025 450.525 529.072 450.937 529.296C451.416 529.557 451.732 529.94 451.855 530.189L426.758 542.604ZM426.771 542.631L426.772 542.632L451.842 530.162L451.841 530.161L426.771 542.631ZM349.211 385.79L426.757 542.602L451.856 530.19L374.309 373.379L349.211 385.79ZM349.16 385.687L349.16 385.687L374.36 373.482L374.36 373.481L349.16 385.687Z" fill="white" mask="url(#path-17-outside-3_101_2)"/>
</g>
</g>
<defs>
<clipPath id="clip0_101_2">
<rect width="582" height="582" fill="white"/>
</clipPath>
<clipPath id="clip1_101_2">
<rect width="582" height="582" fill="white"/>
</clipPath>
</defs>
</svg>
